# xmcd CD database file generated by Grip 3.0.7
# 
# Track frame offsets:
#       150
#       18520
#       39298
#       54368
#       75800
#       93033
#       113945
#       133575
#       150620
#       164890
# 
# Disc length: 2471 seconds
# 
# Revision: 2
# Processed by: cddbd v1.4PL0 Copyright (c) Steve Scherf et al.
# Submitted via: Grip 3.0.7
# 
DISCID=6d09a50a
DTITLE=Louise Hoffsten - Message of love
DYEAR=1991
DGENRE=Blues
TTITLE0=Message of love
TTITLE1=Slowburn
TTITLE2=Get out of my heart
TTITLE3=That's what I get
TTITLE4=Permission to land
TTITLE5=One step back
TTITLE6=Warm and tender love
TTITLE7=Forever
TTITLE8=Talking to myself
TTITLE9=State of mind
EXTD=
EXTT0=
EXTT1=
EXTT2=
EXTT3=
EXTT4=
EXTT5=
EXTT6=
EXTT7=
EXTT8=
EXTT9=
PLAYORDER=
